HIERARCHY
ROOT pelvis
{
  OFFSET 0 100 0
  CHANNELS 6 Xposition Yposition Zposition Zrotation Xrotation Yrotation
  JOINT pelvis_right_femur
  {
    OFFSET -10.78128 -3.44521 -0.5502486
    CHANNELS 3 Zrotation Xrotation Yrotation
    JOINT right_femur_tibia
    {
      OFFSET -0.8047443 -44.0398 -0.1307829
      CHANNELS 3 Zrotation Xrotation Yrotation
      JOINT right_tibia_foot
      {
        OFFSET 3.006224 -47.83518 -5
        CHANNELS 3 Zrotation Xrotation Yrotation
        End Site
        {
          OFFSET 0 -5 15
        }
      }
    }
  }
  JOINT pelvis_left_femur
  {
    OFFSET 10.78128 -3.44521 -0.5502486
    CHANNELS 3 Zrotation Xrotation Yrotation
    JOINT left_femur_tibia
    {
      OFFSET 0.8047443 -44.0398 -0.1307829
      CHANNELS 3 Zrotation Xrotation Yrotation
      JOINT left_tibia_foot
      {
        OFFSET -4.370144 -48.10324 -4.275266
        CHANNELS 3 Zrotation Xrotation Yrotation
        End Site
        {
          OFFSET 0 -5 15
        }
      }
    }
  }
  JOINT pelvis_spine1
  {
    OFFSET 0 6.468898 -3.129235
    CHANNELS 3 Zrotation Xrotation Yrotation
    JOINT spine1
    {
      OFFSET 0 23.15396 4.99043
      CHANNELS 3 Zrotation Xrotation Yrotation
      JOINT spine2
      {
        OFFSET 0 20.79997 -5.064912
        CHANNELS 3 Zrotation Xrotation Yrotation
        JOINT neck
        {
          OFFSET 0 14.38658 9.616178
          CHANNELS 3 Zrotation Xrotation Yrotation
          End Site
          {
            OFFSET 0 20 0
          }
        }
      }
      JOINT right_manubrium
      {
        OFFSET -5.722621 16.35077 3.967754
        CHANNELS 3 Zrotation Xrotation Yrotation
        JOINT right_clavicle
        {
          OFFSET -13.16364 1.694482 -4.693211
          CHANNELS 3 Zrotation Xrotation Yrotation
          JOINT right_humerus
          {
            OFFSET -28.5034 -0.3100689 -2.792744
            CHANNELS 3 Zrotation Xrotation Yrotation
            JOINT right_radius
            {
              OFFSET -25.15693 0.02248979 -1.271978
              CHANNELS 3 Zrotation Xrotation Yrotation
              End Site
              {
                OFFSET -15 0 0
              }
            }
          }
        }
      }
      JOINT left_manubrium
      {
        OFFSET 5.722621 16.35077 3.967754
        CHANNELS 3 Zrotation Xrotation Yrotation
        JOINT left_clavicle
        {
          OFFSET 13.16364 1.694482 -4.693211
          CHANNELS 3 Zrotation Xrotation Yrotation
          JOINT left_humerus
          {
            OFFSET 29.39168 -1.063119 -2.237045
            CHANNELS 3 Zrotation Xrotation Yrotation
            JOINT left_radius
            {
              OFFSET 24.59957 -0.9528479 0.9047498
              CHANNELS 3 Zrotation Xrotation Yrotation
              End Site
              {
                OFFSET 15 -0 -0
              }
            }
          }
        }
      }
    }
  }
}
MOTION
Frames: 20
Frame Time: 0.0416666666667
31.17798 109.6228 234.1312 1.252492 -5.372095 1.305365 1.55134 11.47959 6.592453 -3.006165e-10 33.47241 1.151935e-10 -1.064764 -12.82087 -2.282203 -3.171136 -18.71183 -10.62694 4.415813e-10 20.92968 -1.871158e-09 -0.4696032 -7.166747 21.7219 -2.350569 -0.2404472 7.49472 -0.1619795 9.913996 -3.669873 2.12639 22.47525 5.599427 2.450115 -19.14932 7.73023 3.505212 -21.63237 11.44992 80.94735 29.94902 -6.10048 9.977434e-10 7.982902e-10 22.49878 -20.31963 12.10845 12.91455 3.392368 -15.32219 -2.368936 -94.89054 23.09405 26.2142 -8.658652e-11 2.230276e-10 -8.655749 1.311825 9.532256 12.8803
32.20682 109.735 239.1408 1.294592 -5.025764 1.268024 1.333532 9.294218 6.824481 -7.999051e-11 35.34919 1.03262e-11 -0.8325517 -12.59176 -2.531251 -3.779209 -16.64088 -11.56449 8.838186e-11 18.83478 -1.64476e-09 -0.2572245 -8.318567 21.86011 -2.588117 -0.2910995 7.227781 -0.04996016 9.704939 -3.910894 2.104108 22.55023 5.826217 2.511468 -19.42439 7.986438 3.851523 -21.33369 11.39651 81.44248 30.70174 -6.789635 1.050948e-09 8.268004e-10 22.18371 -19.83751 12.07666 12.68472 3.515731 -15.33724 -2.248338 -95.13984 23.79872 25.80176 -9.88395e-11 2.498741e-10 -9.204218 1.075729 9.633536 13.3266
33.21501 109.8194 243.9977 1.351115 -4.583087 1.378736 1.119085 5.87372 6.950862 2.319524e-10 37.68131 -1.463315e-10 -0.6873779 -12.024 -2.868142 -4.554171 -13.36166 -12.79421 -3.859082e-10 15.9266 -1.273917e-09 0.1569725 -9.987555 22.02044 -2.891883 -0.3846725 6.795267 0.1189629 9.482361 -4.290918 2.062487 22.67908 6.138188 2.610788 -19.83601 8.327793 4.241536 -20.92801 11.3358 82.44907 31.58539 -8.023405 1.080769e-09 8.299665e-10 21.56257 -19.19862 11.99396 12.33101 3.741627 -15.53071 -2.178329 -95.41199 24.62276 25.07977 -1.098899e-10 2.783616e-10 -10.14075 0.9834019 9.91439 13.62135
34.17468 109.8746 248.676 1.37504 -4.061896 1.633802 1.042565 1.419999 6.901365 5.640901e-10 39.3663 -3.217693e-10 -0.6809686 -11.16706 -3.273496 -5.2513 -9.101 -13.94002 -8.303682e-10 13.27426 -8.606389e-10 0.6139148 -11.82013 21.94132 -3.155768 -0.4924466 6.212876 0.3526289 9.23866 -4.775382 2.002509 22.70458 6.442321 2.711676 -20.22596 8.633308 4.580371 -20.27829 11.21317 83.40625 32.35692 -9.653752 1.062589e-09 7.876914e-10 20.43571 -18.31401 11.85731 11.74139 4.029346 -15.87193 -2.175227 -94.97035 25.44859 23.73399 -1.150804e-10 2.939691e-10 -11.49758 1.093039 10.26722 13.59496
35.06652 109.8905 253.1909 1.358999 -3.590316 2.011531 1.108132 -3.389612 6.61668 8.464423e-10 40.09263 -4.709482e-10 -0.8995736 -10.04944 -3.655347 -5.759172 -4.492898 -14.81893 -1.181869e-09 11.24513 -4.201995e-10 1.099775 -13.53914 21.66495 -3.329289 -0.610821 5.564883 0.6091917 9.062553 -5.29501 1.931536 22.66221 6.689413 2.805285 -20.55727 8.851552 4.7653 -19.54771 11.07323 84.3734 32.80555 -11.50417 9.777599e-10 6.943567e-10 18.97013 -17.40157 11.66985 11.04032 4.355748 -16.39184 -2.288872 -93.98398 26.01781 21.99313 -1.114956e-10 2.908065e-10 -13.08409 1.507887 10.71452 13.09814
35.87252 109.8651 257.5829 1.29521 -3.236193 2.469173 1.312567 -8.083537 6.097028 1.021227e-09 39.58268 -5.53496e-10 -1.366805 -8.7456 -3.958648 -6.038624 -0.0005475633 -15.31775 -1.395834e-09 10.21492 2.228224e-11 1.558404 -14.93005 21.17919 -3.373963 -0.730924 4.914092 0.8663132 8.992559 -5.800866 1.856024 22.55094 6.841009 2.879054 -20.78743 8.941239 4.745682 -18.80883 10.9372 85.24769 32.8239 -13.39992 8.194401e-10 5.529454e-10 17.26774 -16.56801 11.44665 10.28926 4.69145 -17.077 -2.531279 -92.50174 26.18453 19.99075 -9.860703e-11 2.648991e-10 -14.77354 2.253961 11.2206 12.0863
36.57026 109.8081 261.8715 1.182562 -2.956072 2.963428 1.611969 -12.60878 5.409667 1.091026e-09 37.83643 -5.679242e-10 -1.999943 -7.319579 -4.183605 -6.131998 4.326128 -15.44888 -1.487569e-09 10.13124 4.483141e-10 1.924466 -15.96258 20.4088 -3.294511 -0.8427105 4.255732 1.122892 8.962641 -6.270032 1.777345 22.28535 6.883146 2.913758 -20.84764 8.882921 4.551203 -17.97287 10.7581 85.58176 32.46581 -15.13911 6.014538e-10 3.78411e-10 15.31076 -15.71223 11.16969 9.442208 5.004224 -17.80915 -2.853368 -90.22205 25.98891 17.62918 -7.953257e-11 2.18939e-10 -16.49336 3.231551 11.67995 10.66063
37.14532 109.7272 266.1414 1.030829 -2.815892 3.441251 2.051275 -16.67766 4.666671 1.042991e-09 35.05461 -5.133208e-10 -2.7957 -5.995231 -4.35188 -6.086323 8.109996 -15.28601 -1.439762e-09 11.51017 8.091205e-10 2.163692 -16.6115 19.5596 -3.097666 -0.9413348 3.700906 1.38194 9.079245 -6.729751 1.707739 22.09914 6.862482 2.94949 -20.92358 8.756521 4.244493 -17.26724 10.67917 86.32524 31.88252 -17.01265 3.371551e-10 1.872943e-10 13.37138 -15.07367 10.97881 8.660144 5.308026 -18.73202 -3.261079 -88.30492 25.43583 15.46215 -5.603965e-11 1.539336e-10 -18.31297 4.409382 12.14226 9.004368
37.58907 109.6427 270.409 0.8588447 -2.699919 3.874512 2.518542 -20.35268 3.977795 9.495299e-10 31.74356 -4.372286e-10 -3.565903 -4.812344 -4.486412 -5.979016 11.47811 -14.94679 -1.329314e-09 13.55356 1.093513e-09 2.258512 -16.99258 18.58391 -2.844863 -1.018067 3.200753 1.632775 9.186104 -7.14178 1.644843 21.83744 6.785899 2.959551 -20.90564 8.564549 3.909974 -16.52615 10.58661 86.67845 31.2278 -18.66422 6.880142e-11 7.309715e-12 11.44256 -14.42999 10.80132 7.864106 5.560517 -19.58388 -3.649072 -86.16552 24.74154 13.29039 -3.415703e-11 8.312251e-11 -20.0481 5.549791 12.4696 7.363686
37.90681 109.5694 274.6874 0.6876969 -2.588962 4.24878 2.98309 -23.44778 3.451523 8.414422e-10 28.39271 -3.62035e-10 -4.206476 -3.908545 -4.613889 -5.854372 14.25004 -14.53714 -1.183719e-09 15.99043 1.271027e-09 2.205295 -17.16169 17.60831 -2.581063 -1.066135 2.794214 1.863012 9.262592 -7.492584 1.594447 21.55753 6.686796 2.953766 -20.84224 8.358754 3.625132 -15.8126 10.49873 86.77852 30.66585 -20.05512 -1.677063e-10 -1.408625e-10 9.709565 -13.81762 10.67166 7.122792 5.75063 -20.29637 -3.965646 -84.15195 24.0584 11.3349 -1.701736e-11 1.606234e-11 -21.59962 6.496006 12.64938 5.983168
38.12564 109.5179 279.0176 0.5429277 -2.525791 4.551404 3.450523 -25.5125 3.182416 7.212014e-10 25.44917 -2.932066e-10 -4.65768 -3.47026 -4.742731 -5.720347 15.97377 -14.12181 -9.986623e-10 18.78901 1.297309e-09 2.008778 -17.09043 16.83867 -2.33663 -1.077613 2.572873 2.049732 9.354479 -7.759551 1.567485 21.40052 6.598141 2.952099 -20.82901 8.1984 3.441344 -15.31216 10.48716 87.08237 30.30099 -21.18191 -3.384527e-10 -2.41888e-10 8.477226 -13.41254 10.67323 6.586756 5.87025 -20.86837 -4.185522 -82.9728 23.54084 10.02344 -5.895716e-12 -3.96139e-11 -22.84126 7.136734 12.71816 5.083525
38.28889 109.4976 283.4384 0.4505892 -2.498765 4.788943 3.875503 -26.54713 3.226339 6.219493e-10 23.54315 -2.4641e-10 -4.862485 -3.541004 -4.900948 -5.620169 16.65978 -13.86517 -8.157359e-10 21.46753 1.186947e-09 1.73415 -16.94344 16.45681 -2.171307 -1.057761 2.551126 2.186344 9.466937 -7.955926 1.567092 21.46994 6.573973 2.976976 -20.96372 8.158395 3.424709 -15.12093 10.58491 87.97036 30.25238 -22.12327 -4.156538e-10 -2.867796e-10 7.908928 -13.27896 10.83899 6.335074 5.936797 -21.30342 -4.283994 -83.08186 23.40216 9.557992 -2.032139e-12 -7.43655e-11 -23.73761 7.393871 12.74259 4.829062
38.43813 109.5189 287.9744 0.4019238 -2.521712 4.951363 4.264027 -26.18041 3.531442 5.103808e-10 22.27135 -2.038062e-10 -4.8132 -4.144774 -5.042166 -5.483781 15.991 -13.58793 -5.775044e-10 24.21724 8.955509e-10 1.316084 -16.48786 16.32143 -2.041785 -0.9915996 2.742907 2.248839 9.562917 -8.010756 1.59407 21.62197 6.548123 2.991745 -21.09037 8.153249 3.514262 -15.16488 10.72797 88.75175 30.41746 -22.54193 -4.003091e-10 -2.787704e-10 7.973454 -13.36617 11.12425 6.332392 5.903297 -21.46904 -4.250626 -83.87932 23.51619 9.801417 -3.58272e-12 -9.123086e-11 -24.10942 7.238966 12.62506 5.162561
38.59099 109.6008 292.6759 0.3608442 -2.620226 4.997101 4.724097 -24.48114 4.028816 3.360632e-10 20.80672 -1.431675e-10 -4.606372 -5.275971 -5.164357 -5.230343 13.97517 -13.09714 -1.707768e-10 27.93491 3.566284e-10 0.6670049 -15.53689 16.26208 -1.868975 -0.8695568 3.150788 2.260282 9.67912 -7.941049 1.647987 21.81188 6.472593 2.985368 -21.16687 8.11828 3.645023 -15.37718 10.92223 89.36749 30.67901 -22.53859 -3.260957e-10 -2.362918e-10 8.489335 -13.64853 11.5482 6.503693 5.768183 -21.45322 -4.13065 -85.12437 23.70183 10.57981 -7.582764e-12 -1.039559e-10 -24.11768 6.791053 12.33534 5.903273
38.77078 109.7524 297.5869 0.3371361 -2.833658 4.892895 5.164823 -21.31879 4.602521 1.040376e-10 19.28175 -6.77342e-11 -4.289371 -6.827127 -5.207151 -4.836534 10.5516 -12.38405 4.264244e-10 32.24323 -4.228164e-10 -0.1265707 -14.09336 16.33616 -1.661047 -0.7028642 3.765761 2.197634 9.833647 -7.719257 1.726038 22.03257 6.338546 2.954663 -21.16696 8.040757 3.766306 -15.80898 11.16274 89.72708 30.94365 -21.99577 -2.038802e-10 -1.628106e-10 9.496394 -14.19005 12.06626 6.894678 5.532404 -21.25028 -3.951311 -86.77694 23.84851 11.94719 -1.240801e-11 -1.117709e-10 -23.64675 6.130092 11.89979 6.927189
38.9923 109.9663 302.6568 0.3330121 -3.110567 4.642068 5.395518 -17.19893 5.004116 -1.347396e-10 17.86762 6.598958e-12 -3.928855 -8.307962 -5.077899 -4.324795 6.408485 -11.47738 1.082365e-09 35.72034 -1.249957e-09 -0.8569112 -12.35779 16.38953 -1.448641 -0.5296066 4.402882 2.039797 9.916874 -7.313597 1.803021 22.02529 6.110929 2.8626 -20.88477 7.844168 3.764648 -16.24117 11.2818 88.75773 31.00635 -20.56682 -7.150322e-11 -7.759448e-11 10.67088 -14.75855 12.43129 7.352554 5.206875 -20.72496 -3.746719 -87.54427 23.75879 13.31421 -1.545661e-11 -1.130165e-10 -22.5529 5.422647 11.32577 7.843137
39.25824 110.2298 307.938 0.3285692 -3.53631 4.227871 5.610395 -12.57676 5.256393 -4.075438e-10 16.36636 8.90021e-11 -3.708173 -9.746185 -4.856412 -3.687177 1.808651 -10.4472 1.873537e-09 39.37647 -2.158753e-09 -1.501962 -10.47284 16.60931 -1.207542 -0.3653369 5.113852 1.847576 10.13736 -6.875145 1.884957 22.14879 5.867849 2.786036 -20.65579 7.639794 3.661411 -16.91631 11.49281 88.27307 30.84331 -19.13969 3.391226e-11 -2.972154e-12 12.03842 -15.62493 12.82517 7.983771 4.889585 -20.33711 -3.625265 -88.88187 23.44166 15.05788 -1.444049e-11 -1.197732e-10 -21.34967 4.904186 10.85004 8.551244
39.58891 110.5113 313.3365 0.364348 -4.005277 3.709822 5.512314 -7.823837 5.225873 -6.134823e-10 15.82417 1.545691e-10 -3.548266 -10.65334 -4.445086 -3.070919 -2.597831 -9.511623 2.370811e-09 40.65525 -2.722035e-09 -1.789195 -8.806 16.926 -1.052745 -0.2565651 5.695065 1.565654 10.29207 -6.323483 1.944296 22.09975 5.606174 2.681904 -20.23725 7.391972 3.40809 -17.61058 11.56574 86.85213 30.35929 -17.09572 1.190013e-10 6.427638e-11 13.43648 -16.49702 12.93833 8.668474 4.571911 -19.75091 -3.546054 -89.3725 22.9106 16.66452 -1.048594e-11 -1.134249e-10 -19.62574 4.548405 10.4577 8.882354
40.01721 110.7524 318.771 0.4566399 -4.541245 3.169636 5.109575 -3.395678 4.888904 -7.260995e-10 16.70476 2.051698e-10 -3.554357 -10.83197 -3.857883 -2.615599 -6.367274 -8.882687 2.348259e-09 39.02264 -2.686316e-09 -1.563758 -7.649886 17.46629 -1.028117 -0.2409049 6.099871 1.208701 10.45051 -5.730892 1.974179 22.0303 5.390512 2.590167 -19.78491 7.178605 3.002738 -18.4353 11.5626 85.28844 29.51314 -14.82921 1.640836e-10 1.099564e-10 14.85877 -17.46958 12.76797 9.453914 4.32571 -19.15502 -3.572459 -89.56927 22.18757 18.25874 -3.178319e-12 -9.246455e-11 -17.54623 4.507555 10.33354 8.70865
40.57589 110.9148 324.1852 0.5957565 -5.112556 2.671891 4.501323 0.7246211 4.398077 -7.62373e-10 18.7968 2.446421e-10 -3.664284 -10.50554 -3.163553 -2.33401 -9.616099 -8.555267 1.958756e-09 35.18125 -2.236946e-09 -0.9664853 -6.930213 18.20009 -1.116287 -0.2955909 6.376685 0.8018972 10.6073 -5.123532 1.983782 21.98155 5.229472 2.515949 -19.34906 7.018663 2.518372 -19.36849 11.51261 83.81873 28.45076 -12.50052 1.882347e-10 1.442842e-10 16.32739 -18.5116 12.40031 10.31696 4.140855 -18.56241 -3.664165 -89.71251 21.38762 19.88961 4.526782e-12 -5.804542e-11 -15.23837 4.665045 10.4172 8.235875
